<svg xmlns="http://www.w3.org/2000/svg" viewBox="0 0 600 200">
  <!-- Background -->
  <rect width="600" height="200" fill="#1A1A1A" rx="10" ry="10"/>

  <!-- Hexagon Shape -->
  <polygon points="100,40 140,60 140,110 100,130 60,110 60,60" fill="#1A1A1A" stroke="#D4AF37" stroke-width="3"/>

  <!-- T Symbol -->
  <path d="M80,65 L120,65 L120,80 L110,80 L110,110 L90,110 L90,80 L80,80 Z" fill="#D4AF37"/>

  <!-- Decorative Lines -->
  <line x1="60" y1="60" x2="45" y2="45" stroke="#D4AF37" stroke-width="1.5"/>
  <line x1="140" y1="60" x2="155" y2="45" stroke="#D4AF37" stroke-width="1.5"/>
  <line x1="60" y1="110" x2="45" y2="125" stroke="#D4AF37" stroke-width="1.5"/>
  <line x1="140" y1="110" x2="155" y2="125" stroke="#D4AF37" stroke-width="1.5"/>

  <!-- Circles -->
  <circle cx="100" cy="40" r="4" fill="none" stroke="#D4AF37" stroke-width="1.5"/>
  <circle cx="60" cy="60" r="4" fill="none" stroke="#D4AF37" stroke-width="1.5"/>
  <circle cx="60" cy="110" r="4" fill="none" stroke="#D4AF37" stroke-width="1.5"/>
  <circle cx="100" cy="130" r="4" fill="none" stroke="#D4AF37" stroke-width="1.5"/>
  <circle cx="140" cy="110" r="4" fill="none" stroke="#D4AF37" stroke-width="1.5"/>
  <circle cx="140" cy="60" r="4" fill="none" stroke="#D4AF37" stroke-width="1.5"/>

  <!-- Small Circles -->
  <circle cx="45" cy="45" r="3" fill="#D4AF37"/>
  <circle cx="155" cy="45" r="3" fill="#D4AF37"/>
  <circle cx="45" cy="125" r="3" fill="#D4AF37"/>
  <circle cx="155" cy="125" r="3" fill="#D4AF37"/>

  <!-- Text -->
  <text x="350" y="85" font-family="Arial, sans-serif" font-size="28" font-weight="bold" fill="#FFFFFF" text-anchor="middle">LEADERS OF TOMORROW</text>
  <text x="350" y="120" font-family="Arial, sans-serif" font-size="22" fill="#D4AF37" text-anchor="middle">ASSOCIATION</text>
</svg>
