<svg xmlns="http://www.w3.org/2000/svg" viewBox="0 0 300 300">
  <!-- Background -->
  <rect width="300" height="300" fill="#1A1A1A" rx="10" ry="10"/>

  <!-- Hexagon Shape -->
  <polygon points="150,60 210,90 210,170 150,200 90,170 90,90" fill="#1A1A1A" stroke="#D4AF37" stroke-width="4"/>

  <!-- T Symbol -->
  <path d="M120,100 L180,100 L180,120 L160,120 L160,170 L140,170 L140,120 L120,120 Z" fill="#D4AF37"/>

  <!-- Decorative Lines -->
  <line x1="90" y1="90" x2="70" y2="70" stroke="#D4AF37" stroke-width="2"/>
  <line x1="210" y1="90" x2="230" y2="70" stroke="#D4AF37" stroke-width="2"/>
  <line x1="90" y1="170" x2="70" y2="190" stroke="#D4AF37" stroke-width="2"/>
  <line x1="210" y1="170" x2="230" y2="190" stroke="#D4AF37" stroke-width="2"/>

  <!-- Circles -->
  <circle cx="150" cy="60" r="6" fill="none" stroke="#D4AF37" stroke-width="2"/>
  <circle cx="90" cy="90" r="6" fill="none" stroke="#D4AF37" stroke-width="2"/>
  <circle cx="90" cy="170" r="6" fill="none" stroke="#D4AF37" stroke-width="2"/>
  <circle cx="150" cy="200" r="6" fill="none" stroke="#D4AF37" stroke-width="2"/>
  <circle cx="210" cy="170" r="6" fill="none" stroke="#D4AF37" stroke-width="2"/>
  <circle cx="210" cy="90" r="6" fill="none" stroke="#D4AF37" stroke-width="2"/>

  <!-- Small Circles -->
  <circle cx="70" cy="70" r="4" fill="#D4AF37"/>
  <circle cx="230" cy="70" r="4" fill="#D4AF37"/>
  <circle cx="70" cy="190" r="4" fill="#D4AF37"/>
  <circle cx="230" cy="190" r="4" fill="#D4AF37"/>

  <!-- Text -->
  <text x="150" y="240" font-family="Arial, sans-serif" font-size="18" font-weight="bold" fill="#FFFFFF" text-anchor="middle">LOTA</text>
</svg>
