<svg xmlns="http://www.w3.org/2000/svg" width="1920" height="1080"><defs><linearGradient id="a" x1="0%" x2="100%" y1="0%" y2="100%"><stop offset="0%" style="stop-color:#0f172a;stop-opacity:1"/><stop offset="100%" style="stop-color:#1e3a8a;stop-opacity:1"/></linearGradient><linearGradient id="b" x1="0%" x2="0%" y1="0%" y2="100%"><stop offset="0%" style="stop-color:#60a5fa;stop-opacity:.7"/><stop offset="100%" style="stop-color:#3b82f6;stop-opacity:.5"/></linearGradient></defs><rect width="100%" height="100%" fill="url(#a)"/><rect width="1720" height="700" x="100" y="200" fill="#1e293b" rx="10"/><rect width="550" height="600" x="1200" y="250" fill="url(#b)" rx="5"/><path fill="#0f172a" d="M1450 250h20l10 250 10 20v180l-15 20h-30l-15-20V520l10-20Z"/><rect width="500" height="300" x="200" y="300" fill="#f8fafc" rx="5"/><text x="450" y="380" fill="#0f172a" font-family="Arial" font-size="24" text-anchor="middle">Leadership in the Age of AI</text><rect width="400" height="150" x="250" y="400" fill="#e2e8f0" rx="5"/><circle cx="350" cy="450" r="30" fill="#3b82f6" opacity=".7"/><circle cx="450" cy="480" r="40" fill="#8b5cf6" opacity=".7"/><circle cx="550" cy="450" r="35" fill="#06b6d4" opacity=".7"/><ellipse cx="800" cy="650" fill="#475569" rx="70" ry="150"/><circle cx="800" cy="500" r="50" fill="#475569"/><ellipse cx="600" cy="700" fill="#64748b" rx="50" ry="100"/><circle cx="600" cy="600" r="30" fill="#64748b"/><ellipse cx="700" cy="720" fill="#64748b" rx="50" ry="100"/><circle cx="700" cy="620" r="30" fill="#64748b"/><ellipse cx="900" cy="720" fill="#64748b" rx="50" ry="100"/><circle cx="900" cy="620" r="30" fill="#64748b"/><ellipse cx="1000" cy="700" fill="#64748b" rx="50" ry="100"/><circle cx="1000" cy="600" r="30" fill="#64748b"/><rect width="700" height="500" x="1100" y="300" fill="#0f172a" opacity=".3" rx="10"/><text x="1450" y="550" fill="#f8fafc" font-family="Arial" font-size="36" text-anchor="middle">Text Overlay Area</text><path fill="#0f172a" d="M0 950h1920v130H0z" opacity=".8"/><text x="960" y="990" fill="#f8fafc" font-family="Arial" font-size="24" text-anchor="middle">PLACEHOLDER: LOTA Canada Hero Image</text><text x="960" y="1030" fill="#f8fafc" font-family="Arial" font-size="18" text-anchor="middle">Modern conference room with Toronto skyline, diverse professionals, and &quot;Leadership in the Age of AI&quot; presentation</text><text x="960" y="1060" fill="#cbd5e1" font-family="Arial" font-size="14" text-anchor="middle">Replace with actual image generated from the provided prompt</text></svg>