<?xml version="1.0" encoding="UTF-8"?>
<svg version="1.1" xmlns="http://www.w3.org/2000/svg" width="1920" height="300">
<path d="M0 0 C633.6 0 1267.2 0 1920 0 C1920 99 1920 198 1920 300 C1286.4 300 652.8 300 0 300 C0 201 0 102 0 0 Z " fill="#FEFEFE" transform="translate(0,0)"/>
<path d="M0 0 C1.74734969 1.35181782 3.47838538 2.72515374 5.1875 4.125 C6.15816406 4.90617187 6.15816406 4.90617187 7.1484375 5.703125 C17.35935733 14.85136992 23.31124357 29.38694681 24.40625 42.80566406 C25.05394291 54.78393478 24.7590675 65.90387977 20.1875 77.125 C19.78660156 78.14464844 19.38570313 79.16429687 18.97265625 80.21484375 C12.67983039 94.387382 1.32993589 104.25222465 -12.75 110.4375 C-29.80408864 116.6559705 -49.23246283 115.89739306 -65.8359375 108.83984375 C-78.45552122 102.49470291 -89.58887624 91.37462077 -94.8125 78.125 C-95.18503906 77.18785156 -95.55757812 76.25070313 -95.94140625 75.28515625 C-101.63184562 58.61038445 -100.88908011 37.85535145 -93.25 22 C-85.44086347 6.74949009 -73.05795296 -3.5693632 -56.8203125 -8.84765625 C-37.66828566 -13.98192779 -16.32592877 -11.50844159 0 0 Z " fill="#FDFDFD" transform="translate(344.8125,93.875)"/>
<path d="M0 0 C6.6 0 13.2 0 20 0 C29.05613136 21.7805691 38.07196767 43.57651861 46.98849487 65.41464233 C52.93578341 79.97878605 58.92501947 94.52515486 64.9375 109.0625 C70.20620598 121.80485541 75.47370005 134.54755892 80.6875 147.3125 C81.13923584 148.41537354 81.59097168 149.51824707 82.05639648 150.65454102 C82.45415283 151.63092529 82.85190918 152.60730957 83.26171875 153.61328125 C83.60162842 154.44641846 83.94153809 155.27955566 84.29174805 156.13793945 C85 158 85 158 85 159 C78.07 159 71.14 159 64 159 C58.32353788 147.64707576 53.71404521 135.78511302 49 124 C23.26 124 -2.48 124 -29 124 C-33.62 135.55 -38.24 147.1 -43 159 C-49.93 159 -56.86 159 -64 159 C-63.13033089 154.65165443 -61.88987322 150.91866645 -60.21875 146.859375 C-59.93384201 146.15761642 -59.64893402 145.45585785 -59.35539246 144.73283386 C-58.4080719 142.40337033 -57.45416001 140.07666957 -56.5 137.75 C-55.82372718 136.09197915 -55.14770692 134.43385528 -54.47192383 132.77563477 C-48.89060851 119.09978599 -43.22878617 105.4572134 -37.55957031 91.81762695 C-24.87099997 61.28126468 -12.42464465 30.64452992 0 0 Z " fill="#1C1C1C" transform="translate(601,66)"/>
<path d="M0 0 C0.93779297 -0.01224609 1.87558594 -0.02449219 2.84179688 -0.03710938 C8.14013534 -0.04815525 12.94827237 0.3768652 18.0859375 1.69555664 C20.09251115 2.19496943 22.07999644 2.51425403 24.125 2.8125 C41.93045199 6.80391481 58.94293337 19.94857773 68.75 34.9375 C81.10604304 54.59093189 85.57132161 78.31382674 80.875 101.17578125 C75.27661418 121.92749023 65.34049647 139.89139328 47.0625 152.1875 C25.33198833 164.67424525 1.41158374 168.67625435 -23.13671875 163.28515625 C-44.4070274 157.14234358 -61.87225058 144.42106672 -72.92822266 125.05664062 C-83.88884342 104.75801639 -86.39889271 80.1503374 -80.125 57.9765625 C-73.36933011 36.42064213 -61.0507413 19.98177009 -40.9375 9.1875 C-27.71009439 2.3228708 -14.77012982 0.0101096 0 0 Z M-48.90625 41.30859375 C-61.90242655 56.84130476 -63.40879358 75.74803359 -61.9375 95.1875 C-59.72796969 111.0401718 -50.66868019 123.97287759 -38.5625 134 C-23.23877433 145.28697298 -4.90913819 147.00400311 13.4375 144.5 C28.83226288 141.42104742 41.72252955 132.73808529 51.0625 120.1875 C53.46818458 116.32122121 55.34816034 112.40300392 57.0625 108.1875 C57.68318359 106.66962891 57.68318359 106.66962891 58.31640625 105.12109375 C64.04826688 88.52466106 62.61846236 69.17392874 55.77734375 53.18359375 C47.79190202 37.19046672 34.03723978 27.40025739 17.4609375 21.765625 C-7.53459106 15.74064418 -31.45614692 22.50818508 -48.90625 41.30859375 Z " fill="#1C1C1C" transform="translate(307.9375,62.8125)"/>
<path d="M0 0 C41.91 0 83.82 0 127 0 C127 6.27 127 12.54 127 19 C109.51 19 92.02 19 74 19 C74 65.2 74 111.4 74 159 C67.4 159 60.8 159 54 159 C54 112.8 54 66.6 54 19 C36.18 19 18.36 19 0 19 C0 12.73 0 6.46 0 0 Z " fill="#1B1B1B" transform="translate(404,66)"/>
<path d="M0 0 C6.6 0 13.2 0 20 0 C20 46.2 20 92.4 20 140 C45.41 140 70.82 140 97 140 C97 146.27 97 152.54 97 159 C64.99 159 32.98 159 0 159 C0 106.53 0 54.06 0 0 Z " fill="#1B1B1B" transform="translate(115,66)"/>
<path d="M0 0 C0.66 0 1.32 0 2 0 C9.55333875 18.0227682 17.06918318 36.06073602 24.43453979 54.1612854 C25.10321155 55.80383947 25.77307285 57.44590978 26.44412231 59.0874939 C27.38167974 61.38241884 28.31459595 63.67917251 29.24609375 65.9765625 C29.52661591 66.66137192 29.80713806 67.34618134 30.09616089 68.05174255 C32 72.77077979 32 72.77077979 32 75 C11.54 75 -8.92 75 -30 75 C-26.48661237 65.63096633 -22.98223622 56.31573841 -19.1796875 47.0703125 C-18.75374298 46.02906219 -18.32779846 44.98781189 -17.88894653 43.91500854 C-16.55315431 40.65077029 -15.21420982 37.38783741 -13.875 34.125 C-12.52934432 30.8404582 -11.18435171 27.55564576 -9.83963013 24.27072144 C-9.00997851 22.24466116 -8.17968224 20.21886469 -7.34860229 18.19338989 C-4.86722354 12.14145629 -2.41880531 6.07721608 0 0 Z " fill="#FCFCFC" transform="translate(610,95)"/>
<path d="M0 0 C4.75814358 2.66873921 8.00029965 6.12589896 9.75 11.375 C10.49175619 18.22104488 9.81094517 23.70277659 5.75 29.375 C0.20563194 34.64891108 -4.69681072 34.72186168 -12.078125 34.65625 C-17.55891012 34.17026905 -20.05556548 31.73084459 -23.5625 27.75 C-27.36137416 22.40343637 -26.80267592 16.75801764 -26.25 10.375 C-23.9644807 5.45234305 -20.53305294 2.56450751 -16.25 -0.625 C-10.72542882 -2.46652373 -5.33994339 -2.4419855 0 0 Z " fill="#FAFAFA" transform="translate(1772.25,130.625)"/>
<path d="M0 0 C4.75814358 2.66873921 8.00029965 6.12589896 9.75 11.375 C10.49175619 18.22104488 9.81094517 23.70277659 5.75 29.375 C0.20563194 34.64891108 -4.69681072 34.72186168 -12.078125 34.65625 C-17.55891012 34.17026905 -20.05556548 31.73084459 -23.5625 27.75 C-27.36137416 22.40343637 -26.80267592 16.75801764 -26.25 10.375 C-23.9644807 5.45234305 -20.53305294 2.56450751 -16.25 -0.625 C-10.72542882 -2.46652373 -5.33994339 -2.4419855 0 0 Z " fill="#FAFAFA" transform="translate(1274.25,130.625)"/>
<path d="M0 0 C4.75814358 2.66873921 8.00029965 6.12589896 9.75 11.375 C10.49175619 18.22104488 9.81094517 23.70277659 5.75 29.375 C0.20563194 34.64891108 -4.69681072 34.72186168 -12.078125 34.65625 C-17.55891012 34.17026905 -20.05556548 31.73084459 -23.5625 27.75 C-27.36137416 22.40343637 -26.80267592 16.75801764 -26.25 10.375 C-23.9644807 5.45234305 -20.53305294 2.56450751 -16.25 -0.625 C-10.72542882 -2.46652373 -5.33994339 -2.4419855 0 0 Z " fill="#FAFAFA" transform="translate(1186.25,130.625)"/>
<path d="M0 0 C5.81622097 2.40192061 10.16945307 6.33890614 13 12 C13.57424913 18.65908129 13.47348213 24.21086312 10 30 C6.48978132 33.68285239 3.23733592 35.81778706 -1.92578125 36.23828125 C-11.03974603 36.43801058 -11.03974603 36.43801058 -15.5625 34.375 C-20.44576374 29.61694815 -23.11107828 25.07713636 -23.3125 18.25 C-23.25081255 12.96030101 -22.14066721 10.24414487 -19 6 C-13.11369284 0.55516588 -7.94490272 -1.16906977 0 0 Z " fill="#FAFAFA" transform="translate(1590,129)"/>
<path d="M0 0 C5.04467402 2.81937869 7.94606028 7.02568084 9.75 12.4375 C10.52487151 18.87782554 9.73074726 24.20566074 5.75 29.4375 C1.33833745 34.00434666 -3.15064432 34.79646094 -9.375 35 C-14.7682648 34.77528063 -18.38510061 34.50581514 -22.25 30.4375 C-26.48060418 24.98858892 -26.93370422 19.25307891 -26.69140625 12.5 C-26.04608246 8.02270929 -24.69074118 5.36045974 -21.25 2.4375 C-14.67264762 -2.33822977 -7.48608742 -3.25053796 0 0 Z " fill="#FCFCFC" transform="translate(1385.25,130.5625)"/>
<path d="M0 0 C4.52571876 2.83253027 6.87288434 5.8116502 8.1875 11 C9.09321682 18.41424002 8.38895861 23.59926484 3.95703125 29.69140625 C1.09188153 32.86590376 -1.0982545 33.88908743 -5.359375 34.55078125 C-17.75278118 34.97940696 -17.75278118 34.97940696 -22.515625 30.609375 C-26.57416437 25.57287434 -28.52608976 20.76442998 -28.19921875 14.23828125 C-27.30760015 9.0777009 -25.0983212 5.25285143 -21.375 1.625 C-14.37752639 -2.81242229 -7.57786859 -3.70778743 0 0 Z " fill="#FBFBFB" transform="translate(1072.8125,131)"/>
<path d="M0 0 C19.47558866 -0.71601429 19.47558866 -0.71601429 24.5859375 3.4609375 C28.480227 7.69947359 30.2134609 11.09926583 30.5 16.9375 C30.27031906 21.96751268 29.04203559 25.95950487 26 30 C17.63018852 36.80047182 11.63871943 35 0 35 C0 23.45 0 11.9 0 0 Z " fill="#F8F8F8" transform="translate(900,130)"/>
<path d="M0 0 C0.99 0 1.98 0 3 0 C3 89.76 3 179.52 3 272 C2.01 272 1.02 272 0 272 C0 182.24 0 92.48 0 0 Z " fill="#1C1C1C" transform="translate(744,14)"/>
<path d="M0 0 C4.516875 -0.1546875 4.516875 -0.1546875 9.125 -0.3125 C10.06230957 -0.35802002 10.99961914 -0.40354004 11.96533203 -0.45043945 C16.26555928 -0.52142297 19.14069839 -0.3837988 22.5546875 2.39453125 C25.43770234 5.46636974 25.93485346 6.13680836 26.25 10.3125 C25.84737374 16.25123729 23.09983396 18.97640262 19 23 C19.5053125 23.78246094 20.010625 24.56492188 20.53125 25.37109375 C21.1809375 26.38300781 21.830625 27.39492187 22.5 28.4375 C23.1496875 29.44683594 23.799375 30.45617187 24.46875 31.49609375 C26 34 26 34 26 35 C23.73828125 35.33984375 23.73828125 35.33984375 21 35 C19.04296875 32.62890625 19.04296875 32.62890625 17.1875 29.5625 C14.61378553 25.51951004 14.61378553 25.51951004 10.70703125 23.046875 C8.28847373 22.73102307 8.28847373 22.73102307 5 23 C5 26.96 5 30.92 5 35 C3.35 35 1.7 35 0 35 C0 23.45 0 11.9 0 0 Z " fill="#2C2C2C" transform="translate(1326,130)"/>
<path d="M0 0 C4.516875 -0.1546875 4.516875 -0.1546875 9.125 -0.3125 C10.06230957 -0.35802002 10.99961914 -0.40354004 11.96533203 -0.45043945 C16.26555928 -0.52142297 19.14069839 -0.3837988 22.5546875 2.39453125 C25.43770234 5.46636974 25.93485346 6.13680836 26.25 10.3125 C25.84737374 16.25123729 23.09983396 18.97640262 19 23 C19.5053125 23.78246094 20.010625 24.56492188 20.53125 25.37109375 C21.1809375 26.38300781 21.830625 27.39492187 22.5 28.4375 C23.1496875 29.44683594 23.799375 30.45617187 24.46875 31.49609375 C26 34 26 34 26 35 C23.73828125 35.33984375 23.73828125 35.33984375 21 35 C19.04296875 32.62890625 19.04296875 32.62890625 17.1875 29.5625 C14.61378553 25.51951004 14.61378553 25.51951004 10.70703125 23.046875 C8.28847373 22.73102307 8.28847373 22.73102307 5 23 C5 26.96 5 30.92 5 35 C3.35 35 1.7 35 0 35 C0 23.45 0 11.9 0 0 Z " fill="#2C2C2C" transform="translate(968,130)"/>
<path d="M0 0 C17 0 17 0 23 3 C25.82683382 7.24025074 25.65811952 11.0204933 25 16 C23.1875 19.125 23.1875 19.125 21 21 C20.01 21 19.02 21 18 21 C20.59641365 25.71048959 23.18863332 30.41303332 26 35 C23.734375 35.2734375 23.734375 35.2734375 21 35 C19.015625 33.1015625 19.015625 33.1015625 17.25 30.625 C16.65703125 29.81289062 16.0640625 29.00078125 15.453125 28.1640625 C14 26 14 26 13 24 C11.10466658 23.53476937 11.10466658 23.53476937 8.9375 23.375 C7.638125 23.25125 6.33875 23.1275 5 23 C5 26.96 5 30.92 5 35 C3.35 35 1.7 35 0 35 C0 23.45 0 11.9 0 0 Z " fill="#292929" transform="translate(1292,130)"/>
<path d="M0 0 C2.475 0.495 2.475 0.495 5 1 C6.17652472 4.4133521 7.33948174 7.83117595 8.5 11.25 C8.83386719 12.21808594 9.16773438 13.18617188 9.51171875 14.18359375 C9.98544922 15.58544922 9.98544922 15.58544922 10.46875 17.015625 C10.76201172 17.87446289 11.05527344 18.73330078 11.35742188 19.61816406 C12 22 12 22 12 26 C12.66 26 13.32 26 14 26 C14.22042969 25.195625 14.22042969 25.195625 14.4453125 24.375 C16.82159948 16.07165239 19.91090634 8.05763589 23 0 C24.65 0 26.3 0 28 0 C29.50827797 3.76757497 31.00518994 7.53956349 32.5 11.3125 C32.92925781 12.38435547 33.35851563 13.45621094 33.80078125 14.56054688 C34.20683594 15.58857422 34.61289063 16.61660156 35.03125 17.67578125 C35.59682617 19.0975769 35.59682617 19.0975769 36.17382812 20.5480957 C37 23 37 23 37 26 C37.66 26 38.32 26 39 26 C39.226875 24.845 39.45375 23.69 39.6875 22.5 C41.29334523 15.19750675 43.71384281 8.1115195 46 1 C47.65 0.67 49.3 0.34 51 0 C49.57341051 6.92609199 47.66855147 13.58454639 45.5 20.3125 C45.19191406 21.28767578 44.88382813 22.26285156 44.56640625 23.26757812 C43.26435068 27.33859735 42.00345455 31.21296894 40 35 C38.68 35 37.36 35 36 35 C32.7 26.42 29.4 17.84 26 9 C24.22088575 11.66867137 23.20141944 13.84348287 22.08984375 16.81640625 C21.73986328 17.74517578 21.38988281 18.67394531 21.02929688 19.63085938 C20.66900391 20.59830078 20.30871094 21.56574219 19.9375 22.5625 C19.21830084 24.48078874 18.4982886 26.3987729 17.77734375 28.31640625 C17.46015381 29.16662354 17.14296387 30.01684082 16.81616211 30.89282227 C16 33 16 33 15 35 C13.68 35 12.36 35 11 35 C9.42531918 30.66125179 7.85899687 26.31961126 6.30029297 21.97509766 C5.76904439 20.49803862 5.23553411 19.02179099 4.69970703 17.54638672 C3.92923299 15.42365211 3.16698064 13.29811776 2.40625 11.171875 C2.16563843 10.51443298 1.92502686 9.85699097 1.67712402 9.17962646 C0.50198768 5.86949073 0 3.57166357 0 0 Z " fill="#272727" transform="translate(1399,130)"/>
<path d="M0 0 C5 1 5 1 6.63745117 2.75 C7.10127197 3.4925 7.56509277 4.235 8.04296875 5 C8.81737305 6.2065625 8.81737305 6.2065625 9.60742188 7.4375 C10.12884766 8.283125 10.65027344 9.12875 11.1875 10 C12.23960597 11.66912097 13.29541486 13.33591541 14.35546875 15 C14.81590576 15.7425 15.27634277 16.485 15.75073242 17.25 C16.89600433 19.14305745 16.89600433 19.14305745 19 20 C19.23074219 19.33613281 19.46148438 18.67226562 19.69921875 17.98828125 C21.38028215 14.12637885 23.52172591 10.71306543 25.8125 7.1875 C26.23853516 6.49462891 26.66457031 5.80175781 27.10351562 5.08789062 C27.52955078 4.43369141 27.95558594 3.77949219 28.39453125 3.10546875 C28.77456299 2.50887451 29.15459473 1.91228027 29.54614258 1.29760742 C31 0 31 0 36 0 C36 11.55 36 23.1 36 35 C34.35 35 32.7 35 31 35 C30.505 23.12 30.505 23.12 30 11 C25.05 18.425 25.05 18.425 20 26 C15 25 15 25 13.5144043 23.50952148 C12.92526245 22.57474976 12.92526245 22.57474976 12.32421875 21.62109375 C11.93065186 21.01450928 11.53708496 20.4079248 11.1315918 19.78295898 C10.6550415 19.00895752 10.17849121 18.23495605 9.6875 17.4375 C8.140625 14.983125 6.59375 12.52875 5 10 C4.67 18.25 4.34 26.5 4 35 C2.68 35 1.36 35 0 35 C0 23.45 0 11.9 0 0 Z " fill="#262626" transform="translate(1204,130)"/>
<path d="M0 0 C1.65 0 3.3 0 5 0 C6.58585375 3.62390238 8.16820933 7.2493225 9.75 10.875 C10.1934375 11.88820312 10.636875 12.90140625 11.09375 13.9453125 C19 32.08318015 19 32.08318015 19 35 C17.35 35 15.7 35 14 35 C13.01 32.69 12.02 30.38 11 28 C5.39 28 -0.22 28 -6 28 C-7.485 31.465 -7.485 31.465 -9 35 C-10.65 35 -12.3 35 -14 35 C-9.69353097 23.17352255 -4.95458092 11.56907221 0 0 Z " fill="#242424" transform="translate(1479,130)"/>
<path d="M0 0 C1.2065625 0.0309375 1.2065625 0.0309375 2.4375 0.0625 C4.29559101 4.56213651 6.14680915 9.06451493 7.99169922 13.56958008 C8.62034749 15.10193052 9.25087096 16.63351304 9.88330078 18.16430664 C10.79172284 20.36405706 11.69337781 22.56647586 12.59375 24.76953125 C12.87810913 25.45400833 13.16246826 26.13848541 13.45544434 26.84370422 C14.63589905 29.74841119 15.4375 31.89455463 15.4375 35.0625 C13.7875 34.7325 12.1375 34.4025 10.4375 34.0625 C9.7775 31.7525 9.1175 29.4425 8.4375 27.0625 C2.4975 27.0625 -3.4425 27.0625 -9.5625 27.0625 C-10.2225 29.7025 -10.8825 32.3425 -11.5625 35.0625 C-13.2125 35.0625 -14.8625 35.0625 -16.5625 35.0625 C-14.43942967 27.27682004 -11.58150779 19.92511349 -8.4375 12.5 C-7.98246094 11.40880859 -7.52742188 10.31761719 -7.05859375 9.19335938 C-3.23104925 0.07880608 -3.23104925 0.07880608 0 0 Z " fill="#242424" transform="translate(1679.5625,129.9375)"/>
<path d="M0 0 C1.65 0 3.3 0 5 0 C6.99604587 4.82289274 8.98981562 9.64671745 10.98144531 14.47143555 C11.65985011 16.11394919 12.3388855 17.75620252 13.01855469 19.39819336 C13.99318145 21.75306778 14.96556553 24.10885709 15.9375 26.46484375 C16.24373291 27.20339096 16.54996582 27.94193817 16.86547852 28.7028656 C19 33.88612829 19 33.88612829 19 35 C17.35 35 15.7 35 14 35 C13.01 32.69 12.02 30.38 11 28 C5.06 27.67 -0.88 27.34 -7 27 C-7.33 28.65 -7.66 30.3 -8 32 C-8.33 32.99 -8.66 33.98 -9 35 C-10.65 35 -12.3 35 -14 35 C-11.67899052 27.67575485 -8.86053019 20.63915297 -5.875 13.5625 C-5.41996094 12.47517578 -4.96492187 11.38785156 -4.49609375 10.26757812 C-1.17712355 2.3542471 -1.17712355 2.3542471 0 0 Z " fill="#232323" transform="translate(875,130)"/>
<path d="M0 0 C5.04467402 2.81937869 7.94606028 7.02568084 9.75 12.4375 C10.52487151 18.87782554 9.73074726 24.20566074 5.75 29.4375 C1.33833745 34.00434666 -3.15064432 34.79646094 -9.375 35 C-14.7682648 34.77528063 -18.38510061 34.50581514 -22.25 30.4375 C-26.48060418 24.98858892 -26.93370422 19.25307891 -26.69140625 12.5 C-26.04608246 8.02270929 -24.69074118 5.36045974 -21.25 2.4375 C-14.67264762 -2.33822977 -7.48608742 -3.25053796 0 0 Z M-21.625 10.25 C-23.0130171 15.10805987 -22.7490333 19.11506176 -21 23.75 C-18.54851151 27.5147859 -16.48313019 29.0264566 -12.25 30.4375 C-8.47377906 30.94099613 -4.82176768 31.29633508 -1.3984375 29.42578125 C1.81013483 26.7941197 4.46315935 24.16957623 5.15625 19.984375 C5.32791154 14.86313916 5.31863792 11.35644163 1.9375 7.3125 C-1.34785517 3.92168898 -4.42819318 3.24758752 -9.0625 3.0625 C-15.30321993 3.11716324 -17.87644534 5.3087234 -21.625 10.25 Z " fill="#282828" transform="translate(1385.25,130.5625)"/>
<path d="M0 0 C5.81622097 2.40192061 10.16945307 6.33890614 13 12 C13.57424913 18.65908129 13.47348213 24.21086312 10 30 C6.48978132 33.68285239 3.23733592 35.81778706 -1.92578125 36.23828125 C-11.03974603 36.43801058 -11.03974603 36.43801058 -15.5625 34.375 C-20.44576374 29.61694815 -23.11107828 25.07713636 -23.3125 18.25 C-23.25081255 12.96030101 -22.14066721 10.24414487 -19 6 C-13.11369284 0.55516588 -7.94490272 -1.16906977 0 0 Z M-16.640625 9.73828125 C-18.37707114 12.62736836 -18.40037497 14.58377495 -18.375 17.9375 C-18.38273437 18.95714844 -18.39046875 19.97679687 -18.3984375 21.02734375 C-17.81899674 25.3504263 -16.16959138 28.00240735 -12.875 30.8125 C-7.70067217 32.94972237 -2.96436326 32.63007878 2.3125 30.9375 C6.31686616 28.05063137 8.47493647 24.7753358 9.3828125 19.9765625 C9.6779908 14.84046006 8.2948185 11.82911339 5 8 C1.28393955 4.81480533 -2.05888885 4.53792938 -6.78515625 4.7109375 C-10.87782695 5.24507794 -13.82188119 6.75175507 -16.640625 9.73828125 Z " fill="#272727" transform="translate(1590,129)"/>
<path d="M0 0 C4.52571876 2.83253027 6.87288434 5.8116502 8.1875 11 C9.09321682 18.41424002 8.38895861 23.59926484 3.95703125 29.69140625 C1.09188153 32.86590376 -1.0982545 33.88908743 -5.359375 34.55078125 C-17.75278118 34.97940696 -17.75278118 34.97940696 -22.515625 30.609375 C-26.57416437 25.57287434 -28.52608976 20.76442998 -28.19921875 14.23828125 C-27.30760015 9.0777009 -25.0983212 5.25285143 -21.375 1.625 C-14.37752639 -2.81242229 -7.57786859 -3.70778743 0 0 Z M-21.625 8.0625 C-23.7256325 13.25880145 -23.7680497 18.68656388 -21.625 23.875 C-17.95413952 28.32366976 -17.95413952 28.32366976 -12.69921875 30.3515625 C-7.69828497 30.53647098 -4.06052046 29.83201364 0.1875 27 C3.75196811 23.06679381 4.54663489 19.35867252 4.46875 14.0625 C3.87043924 9.67488773 1.26817867 6.95354 -1.9375 4.125 C-9.24362711 1.2660807 -16.37069426 2.08346243 -21.625 8.0625 Z " fill="#272727" transform="translate(1072.8125,131)"/>
<path d="M0 0 C5 0 5 0 6.78930664 1.74072266 C7.5916272 2.94027588 7.5916272 2.94027588 8.41015625 4.1640625 C9.30637695 5.47697266 9.30637695 5.47697266 10.22070312 6.81640625 C10.82849609 7.74324219 11.43628906 8.67007813 12.0625 9.625 C12.67416016 10.52863281 13.28582031 11.43226563 13.91601562 12.36328125 C15.62752042 14.89815862 17.31618986 17.44667119 19 20 C20.98 22.97 20.98 22.97 23 26 C23.33 17.42 23.66 8.84 24 0 C25.32 0 26.64 0 28 0 C28 11.55 28 23.1 28 35 C22.37431703 33.87486341 22.37431703 33.87486341 20.31640625 30.9375 C19.86330078 30.30457031 19.41019531 29.67164063 18.94335938 29.01953125 C18.25983398 28.01986328 18.25983398 28.01986328 17.5625 27 C17.11068359 26.36449219 16.65886719 25.72898438 16.19335938 25.07421875 C12.69223969 20.11802379 9.36632905 15.04949358 6 10 C5.67 18.25 5.34 26.5 5 35 C3.35 35 1.7 35 0 35 C0 23.45 0 11.9 0 0 Z " fill="#262626" transform="translate(1790,130)"/>
<path d="M0 0 C4.75814358 2.66873921 8.00029965 6.12589896 9.75 11.375 C10.49175619 18.22104488 9.81094517 23.70277659 5.75 29.375 C0.20563194 34.64891108 -4.69681072 34.72186168 -12.078125 34.65625 C-17.55891012 34.17026905 -20.05556548 31.73084459 -23.5625 27.75 C-27.36137416 22.40343637 -26.80267592 16.75801764 -26.25 10.375 C-23.9644807 5.45234305 -20.53305294 2.56450751 -16.25 -0.625 C-10.72542882 -2.46652373 -5.33994339 -2.4419855 0 0 Z M-21.625 10.1875 C-22.99179371 14.97127797 -22.72133172 19.01337504 -21.125 23.625 C-18.79125416 27.04782723 -16.99526566 28.57172394 -13.25 30.375 C-7.63524139 31.27054394 -3.00558283 30.65861671 1.75 27.375 C5.67745058 22.0040473 5.55122411 16.80259786 4.75 10.375 C3.00348964 7.14072155 1.6936611 5.9578495 -1.375 4.0625 C-10.31524933 1.92461429 -15.92797529 2.6777856 -21.625 10.1875 Z " fill="#272727" transform="translate(1772.25,130.625)"/>
<path d="M0 0 C4.75814358 2.66873921 8.00029965 6.12589896 9.75 11.375 C10.49175619 18.22104488 9.81094517 23.70277659 5.75 29.375 C0.20563194 34.64891108 -4.69681072 34.72186168 -12.078125 34.65625 C-17.55891012 34.17026905 -20.05556548 31.73084459 -23.5625 27.75 C-27.36137416 22.40343637 -26.80267592 16.75801764 -26.25 10.375 C-23.9644807 5.45234305 -20.53305294 2.56450751 -16.25 -0.625 C-10.72542882 -2.46652373 -5.33994339 -2.4419855 0 0 Z M-21.625 10.1875 C-22.99179371 14.97127797 -22.72133172 19.01337504 -21.125 23.625 C-18.79125416 27.04782723 -16.99526566 28.57172394 -13.25 30.375 C-7.63524139 31.27054394 -3.00558283 30.65861671 1.75 27.375 C5.67745058 22.0040473 5.55122411 16.80259786 4.75 10.375 C3.00348964 7.14072155 1.6936611 5.9578495 -1.375 4.0625 C-10.31524933 1.92461429 -15.92797529 2.6777856 -21.625 10.1875 Z " fill="#272727" transform="translate(1274.25,130.625)"/>
<path d="M0 0 C4.75814358 2.66873921 8.00029965 6.12589896 9.75 11.375 C10.49175619 18.22104488 9.81094517 23.70277659 5.75 29.375 C0.20563194 34.64891108 -4.69681072 34.72186168 -12.078125 34.65625 C-17.55891012 34.17026905 -20.05556548 31.73084459 -23.5625 27.75 C-27.36137416 22.40343637 -26.80267592 16.75801764 -26.25 10.375 C-23.9644807 5.45234305 -20.53305294 2.56450751 -16.25 -0.625 C-10.72542882 -2.46652373 -5.33994339 -2.4419855 0 0 Z M-21.625 10.1875 C-22.99179371 14.97127797 -22.72133172 19.01337504 -21.125 23.625 C-18.79125416 27.04782723 -16.99526566 28.57172394 -13.25 30.375 C-7.63524139 31.27054394 -3.00558283 30.65861671 1.75 27.375 C5.67745058 22.0040473 5.55122411 16.80259786 4.75 10.375 C3.00348964 7.14072155 1.6936611 5.9578495 -1.375 4.0625 C-10.31524933 1.92461429 -15.92797529 2.6777856 -21.625 10.1875 Z " fill="#272727" transform="translate(1186.25,130.625)"/>
<path d="M0 0 C19.47558866 -0.71601429 19.47558866 -0.71601429 24.5859375 3.4609375 C28.480227 7.69947359 30.2134609 11.09926583 30.5 16.9375 C30.27031906 21.96751268 29.04203559 25.95950487 26 30 C17.63018852 36.80047182 11.63871943 35 0 35 C0 23.45 0 11.9 0 0 Z M4 4 C4 12.91 4 21.82 4 31 C14.73222889 31.79003338 14.73222889 31.79003338 22 27 C25.56213812 23.03443901 25.5599717 19.87094027 25.421875 14.69921875 C24.75447566 10.4290989 23.21291454 8.84781062 20 6 C14.95650161 3.10557281 14.95650161 3.10557281 4 4 Z " fill="#212121" transform="translate(900,130)"/>
<path d="M0 0 C4.21585072 2.3524447 6.30908163 5.31845025 8.75 9.4375 C8.75 10.0975 8.75 10.7575 8.75 11.4375 C6.5625 11.8125 6.5625 11.8125 3.75 11.4375 C1.0625 8.5 1.0625 8.5 -1.25 5.4375 C-5.20147172 3.46176414 -9.95415448 3.86100125 -14.25 4.4375 C-17.40222575 6.66740529 -17.40222575 6.66740529 -19.25 9.4375 C-19.58 9.7675 -19.91 10.0975 -20.25 10.4375 C-20.37583966 12.371919 -20.42578009 14.31152763 -20.4375 16.25 C-20.45167969 17.30832031 -20.46585938 18.36664063 -20.48046875 19.45703125 C-20.25298475 22.39890056 -19.83830403 23.98840182 -18.25 26.4375 C-14.50626372 29.61400351 -11.12913838 29.89944526 -6.3984375 29.7265625 C-3.39628516 29.32263655 -1.57863654 28.35520068 0.75 26.4375 C1.245 25.715625 1.74 24.99375 2.25 24.25 C2.745 23.651875 3.24 23.05375 3.75 22.4375 C6.4375 22.1875 6.4375 22.1875 8.75 22.4375 C6.89118011 27.52479653 5.48909222 30.46179093 0.75 33.4375 C-4.24453118 35.6090353 -9.06030678 36.54461678 -14.33203125 34.71484375 C-19.65925337 32.27361209 -22.57952425 29.36083256 -25.5 24.25 C-26.98349422 18.68689669 -27.36390435 12.84033037 -24.625 7.625 C-18.38287317 -0.75259127 -10.01618174 -4.44741277 0 0 Z " fill="#2B2B2B" transform="translate(1635.25,130.5625)"/>
<path d="M0 0 C2.67686585 1.74307544 4.16446907 2.95777663 5.6875 5.75 C5.6875 7.07 5.6875 8.39 5.6875 9.75 C4.3675 9.75 3.0475 9.75 1.6875 9.75 C1.39875 9.110625 1.11 8.47125 0.8125 7.8125 C-0.14073451 5.59793921 -0.14073451 5.59793921 -2.3125 4.75 C-3.9978196 4.65465746 -5.68699266 4.62014242 -7.375 4.625 C-8.27347656 4.62242187 -9.17195313 4.61984375 -10.09765625 4.6171875 C-12.28628893 4.50261777 -12.28628893 4.50261777 -13.3125 5.75 C-13.35330783 7.74958364 -13.35504356 9.75045254 -13.3125 11.75 C-12.58804687 12.00394531 -11.86359375 12.25789062 -11.1171875 12.51953125 C4.27660708 17.99972212 4.27660708 17.99972212 6.6875 21.75 C7.21764007 25.83965199 7.13734397 28.00026004 5 31.5625 C1.37925797 34.98752624 -1.1949978 35.62176204 -6.125 36.1875 C-10.98311037 36.03972478 -14.8900327 34.19807179 -18.3125 30.75 C-19.3125 26.9375 -19.3125 26.9375 -19.3125 23.75 C-17.9925 23.75 -16.6725 23.75 -15.3125 23.75 C-13.6875 26.1875 -13.6875 26.1875 -12.3125 28.75 C-9.94636544 29.93306728 -8.44469264 29.88354608 -5.8125 29.875 C-5.0184375 29.87757813 -4.224375 29.88015625 -3.40625 29.8828125 C-1.25331466 29.88277996 -1.25331466 29.88277996 0.6875 28.75 C0.6875 26.77 0.6875 24.79 0.6875 22.75 C-0.38177734 22.38648438 -0.38177734 22.38648438 -1.47265625 22.015625 C-15.81454798 16.99692803 -15.81454798 16.99692803 -19.3125 11.75 C-19.75 8.375 -19.75 8.375 -19.3125 4.75 C-14.09315897 -1.73891047 -7.6318811 -2.87995513 0 0 Z " fill="#2B2B2B" transform="translate(1554.3125,130.25)"/>
<path d="M0 0 C2.67686585 1.74307544 4.16446907 2.95777663 5.6875 5.75 C5.6875 7.07 5.6875 8.39 5.6875 9.75 C4.3675 9.75 3.0475 9.75 1.6875 9.75 C1.39875 9.110625 1.11 8.47125 0.8125 7.8125 C-0.14073451 5.59793921 -0.14073451 5.59793921 -2.3125 4.75 C-3.9978196 4.65465746 -5.68699266 4.62014242 -7.375 4.625 C-8.27347656 4.62242187 -9.17195312 4.61984375 -10.09765625 4.6171875 C-12.28628893 4.50261777 -12.28628893 4.50261777 -13.3125 5.75 C-13.35330783 7.74958364 -13.35504356 9.75045254 -13.3125 11.75 C-12.58804688 12.00394531 -11.86359375 12.25789062 -11.1171875 12.51953125 C4.27660708 17.99972212 4.27660708 17.99972212 6.6875 21.75 C7.21764007 25.83965199 7.13734397 28.00026004 5 31.5625 C1.37925797 34.98752624 -1.1949978 35.62176204 -6.125 36.1875 C-10.98311037 36.03972478 -14.8900327 34.19807179 -18.3125 30.75 C-19.3125 26.9375 -19.3125 26.9375 -19.3125 23.75 C-17.9925 23.75 -16.6725 23.75 -15.3125 23.75 C-13.6875 26.1875 -13.6875 26.1875 -12.3125 28.75 C-9.94636544 29.93306728 -8.44469264 29.88354608 -5.8125 29.875 C-5.0184375 29.87757813 -4.224375 29.88015625 -3.40625 29.8828125 C-1.25331466 29.88277996 -1.25331466 29.88277996 0.6875 28.75 C0.6875 26.77 0.6875 24.79 0.6875 22.75 C-0.38177734 22.38648438 -0.38177734 22.38648438 -1.47265625 22.015625 C-15.81454798 16.99692803 -15.81454798 16.99692803 -19.3125 11.75 C-19.75 8.375 -19.75 8.375 -19.3125 4.75 C-14.09315897 -1.73891047 -7.6318811 -2.87995513 0 0 Z " fill="#2B2B2B" transform="translate(1020.3125,130.25)"/>
<path d="M0 0 C3.5175976 1.27612094 6.25851125 2.93612484 8.4375 6.0625 C9 8 9 8 9 11 C6.6875 11.3125 6.6875 11.3125 4 11 C3.5771875 10.175 3.154375 9.35 2.71875 8.5 C2.1515625 7.675 1.584375 6.85 1 6 C-1.96381518 5.39518228 -1.96381518 5.39518228 -5.1875 5.6875 C-6.27417969 5.73261719 -7.36085938 5.77773437 -8.48046875 5.82421875 C-9.31191406 5.88222656 -10.14335938 5.94023437 -11 6 C-11.41746608 8.87364791 -11.41746608 8.87364791 -11 12 C-7.1201278 15.16163815 -2.32936539 16.33136837 2.37890625 17.83984375 C5.35278561 19.15615101 6.97636957 20.46228332 9 23 C9.72859252 25.74293653 9.56488292 28.22693839 9 31 C6.59580413 34.38368307 3.96746466 35.89280056 0 37 C-5.24665744 37.47696886 -8.55844889 36.86233294 -13 34 C-16.25492571 30.65941835 -17 29.77187019 -17 25 C-15.35 25 -13.7 25 -12 25 C-11.71125 25.804375 -11.4225 26.60875 -11.125 27.4375 C-10.26737432 30.1326468 -10.26737432 30.1326468 -8 31 C-5.89044938 31.19738723 -5.89044938 31.19738723 -3.5625 31.1875 C-2.38880859 31.20876953 -2.38880859 31.20876953 -1.19140625 31.23046875 C1.29205987 31.14086064 1.29205987 31.14086064 4 29 C4.05167527 26.57732914 4.05167527 26.57732914 3 24 C0.60421366 22.72876643 -1.45690765 21.84282563 -4 21 C-13.62385093 17.76223602 -13.62385093 17.76223602 -16 14 C-16.60543235 10.87481588 -16.68168408 8.11627006 -16 5 C-11.21369747 -0.03821319 -6.68669464 -0.79759593 0 0 Z " fill="#2B2B2B" transform="translate(1519,129)"/>
<path d="M0 0 C6.93 0 13.86 0 21 0 C21 1.32 21 2.64 21 4 C15.72 4 10.44 4 5 4 C5 7.63 5 11.26 5 15 C9.95 15 14.9 15 20 15 C20 16.32 20 17.64 20 19 C14.72 19 9.44 19 4 19 C4 22.96 4 26.92 4 31 C9.94 31 15.88 31 22 31 C22 32.32 22 33.64 22 35 C14.74 35 7.48 35 0 35 C0 23.45 0 11.9 0 0 Z " fill="#212121" transform="translate(938,130)"/>
<path d="M0 0 C6.93 0 13.86 0 21 0 C21 1.32 21 2.64 21 4 C15.39 4 9.78 4 4 4 C4 7.63 4 11.26 4 15 C9.28 15 14.56 15 20 15 C20 16.32 20 17.64 20 19 C14.72 19 9.44 19 4 19 C4 22.96 4 26.92 4 31 C9.94 31 15.88 31 22 31 C22 32.32 22 33.64 22 35 C14.74 35 7.48 35 0 35 C0 23.45 0 11.9 0 0 Z " fill="#1B1B1B" transform="translate(835,130)"/>
<path d="M0 0 C9.24 0 18.48 0 28 0 C28 1.32 28 2.64 28 4 C24.37 4 20.74 4 17 4 C17 14.23 17 24.46 17 35 C15.35 35 13.7 35 12 35 C12 24.77 12 14.54 12 4 C8.04 4 4.08 4 0 4 C0 2.68 0 1.36 0 0 Z " fill="#2A2A2A" transform="translate(1698,130)"/>
<path d="M0 0 C6.6 0 13.2 0 20 0 C20 1.32 20 2.64 20 4 C14.72 4 9.44 4 4 4 C4 7.96 4 11.92 4 16 C8.95 16 13.9 16 19 16 C19 17.32 19 18.64 19 20 C14.05 20 9.1 20 4 20 C4 24.95 4 29.9 4 35 C2.68 35 1.36 35 0 35 C0 23.45 0 11.9 0 0 Z " fill="#1E1E1E" transform="translate(1090,130)"/>
<path d="M0 0 C9.24 0 18.48 0 28 0 C28 1.32 28 2.64 28 4 C24.04 4 20.08 4 16 4 C16 14.23 16 24.46 16 35 C14.68 35 13.36 35 12 35 C12 24.77 12 14.54 12 4 C8.04 4 4.08 4 0 4 C0 2.68 0 1.36 0 0 Z " fill="#191919" transform="translate(1127,130)"/>
<path d="M0 0 C1.8975 -0.061875 3.795 -0.12375 5.75 -0.1875 C7.35101562 -0.23970703 7.35101562 -0.23970703 8.984375 -0.29296875 C12.35541238 0.03452841 13.68796703 0.55034602 16 3 C16.53125 4.9375 16.53125 4.9375 16.5 7 C16.5103125 7.680625 16.520625 8.36125 16.53125 9.0625 C16 11 16 11 14.359375 12.73828125 C11.32045844 14.36339723 9.17612843 14.29922158 5.75 14.1875 C2.90375 14.0946875 2.90375 14.0946875 0 14 C0 9.38 0 4.76 0 0 Z " fill="#FAFAFA" transform="translate(1331,134)"/>
<path d="M0 0 C1.8975 -0.061875 3.795 -0.12375 5.75 -0.1875 C7.35101562 -0.23970703 7.35101562 -0.23970703 8.984375 -0.29296875 C12.35541238 0.03452841 13.68796703 0.55034602 16 3 C16.53125 4.9375 16.53125 4.9375 16.5 7 C16.5103125 7.680625 16.520625 8.36125 16.53125 9.0625 C16 11 16 11 14.359375 12.73828125 C11.32045844 14.36339723 9.17612843 14.29922158 5.75 14.1875 C2.90375 14.0946875 2.90375 14.0946875 0 14 C0 9.38 0 4.76 0 0 Z " fill="#FAFAFA" transform="translate(973,134)"/>
<path d="M0 0 C1.32 0 2.64 0 4 0 C4 10.23 4 20.46 4 31 C9.61 31 15.22 31 21 31 C21 32.32 21 33.64 21 35 C14.07 35 7.14 35 0 35 C0 23.45 0 11.9 0 0 Z " fill="#191919" transform="translate(807,130)"/>
<path d="M0 0 C11.36242083 -0.4940183 11.36242083 -0.4940183 14.359375 1.828125 C16 4 16 4 16.5 7 C15.87802823 10.73183062 14.96444087 11.70304913 12 14 C7.93404512 14.52667809 4.11858117 14.17906875 0 14 C0 9.38 0 4.76 0 0 Z " fill="#FAFAFA" transform="translate(1297,134)"/>
<path d="M0 0 C1.65 0 3.3 0 5 0 C5 11.55 5 23.1 5 35 C3.35 35 1.7 35 0 35 C0 23.45 0 11.9 0 0 Z " fill="#353535" transform="translate(1733,130)"/>
<path d="M0 0 C1.65 0 3.3 0 5 0 C5 11.55 5 23.1 5 35 C3.35 35 1.7 35 0 35 C0 23.45 0 11.9 0 0 Z " fill="#353535" transform="translate(1652,130)"/>
<path d="M0 0 C0.66 0 1.32 0 2 0 C3.0044134 2.2898234 4.00367612 4.5816599 5 6.875 C5.28617188 7.52597656 5.57234375 8.17695313 5.8671875 8.84765625 C8 13.7734375 8 13.7734375 8 16 C3.38 16 -1.24 16 -6 16 C-4.02 10.72 -2.04 5.44 0 0 Z " fill="#F0F0F0" transform="translate(1678,137)"/>
<path d="M0 0 C2.72178647 2.37083979 3.88769607 4.6533784 5.1875 8 C5.53167969 8.86625 5.87585937 9.7325 6.23046875 10.625 C7 13 7 13 7 16 C2.71 16 -1.58 16 -6 16 C-4.3967597 10.35048657 -2.85403778 5.16444932 0 0 Z " fill="#F0F0F0" transform="translate(1481,137)"/>
<path d="M0 0 C3.1398451 1.56992255 3.42143346 4.22447002 4.625 7.4375 C5.07101562 8.61183594 5.51703125 9.78617188 5.9765625 10.99609375 C7 14 7 14 7 16 C2.71 16 -1.58 16 -6 16 C-5.24068597 12.20342984 -4.43358175 9.27070811 -3 5.75 C-2.649375 4.87859375 -2.29875 4.0071875 -1.9375 3.109375 C-1 1 -1 1 0 0 Z " fill="#F0F0F0" transform="translate(877,137)"/>
</svg>
