<?xml version="1.0" encoding="UTF-8"?>
<svg xmlns="http://www.w3.org/2000/svg" viewBox="0 0 200 200">
  <!-- Circle background -->
  <circle cx="100" cy="100" r="95" fill="#1C1C1C" />

  <!-- LOTA text in white -->
  <g fill="#FFFFFF" transform="translate(40, 70) scale(0.8)">
    <!-- L -->
    <path d="M0 0 C6.6 0 13.2 0 20 0 C20 46.2 20 92.4 20 140 C45.41 140 70.82 140 97 140 C97 146.27 97 152.54 97 159 C64.99 159 32.98 159 0 159 C0 106.53 0 54.06 0 0 Z" />

    <!-- O -->
    <path d="M150 0 C150.93779297 -0.01224609 151.87558594 -0.02449219 152.84179688 -0.03710938 C158.14013534 -0.04815525 162.94827237 0.3768652 168.0859375 1.69555664 C170.09251115 2.19496943 172.07999644 2.51425403 174.125 2.8125 C191.93045199 6.80391481 208.94293337 19.94857773 218.75 34.9375 C231.10604304 54.59093189 235.57132161 78.31382674 230.875 101.17578125 C225.27661418 121.92749023 215.34049647 139.89139328 197.0625 152.1875 C175.33198833 164.67424525 151.41158374 168.67625435 126.86328125 163.28515625 C105.5929726 157.14234358 88.12774942 144.42106672 77.07177734 125.05664062 C66.11115658 104.75801639 63.60110729 80.1503374 69.875 57.9765625 C76.63066989 36.42064213 88.9492587 19.98177009 109.0625 9.1875 C122.28990561 2.3228708 135.22987018 0.0101096 150 0 Z M101.09375 41.30859375 C88.09757345 56.84130476 86.59120642 75.74803359 88.0625 95.1875 C90.27203031 111.0401718 99.33131981 123.97287759 111.4375 134 C126.76122567 145.28697298 145.09086181 147.00400311 163.4375 144.5 C178.83226288 141.42104742 191.72252955 132.73808529 201.0625 120.1875 C203.46818458 116.32122121 205.34816034 112.40300392 207.0625 108.1875 C207.68318359 106.66962891 207.68318359 106.66962891 208.31640625 105.12109375 C214.04826688 88.52466106 212.61846236 69.17392874 205.77734375 53.18359375 C197.79190202 37.19046672 184.03723978 27.40025739 167.4609375 21.765625 C142.46540894 15.74064418 118.54385308 22.50818508 101.09375 41.30859375 Z" />

    <!-- T -->
    <path d="M250 0 C291.91 0 333.82 0 377 0 C377 6.27 377 12.54 377 19 C359.51 19 342.02 19 324 19 C324 65.2 324 111.4 324 159 C317.4 159 310.8 159 304 159 C304 112.8 304 66.6 304 19 C286.18 19 268.36 19 250 19 C250 12.73 250 6.46 250 0 Z" />

    <!-- A -->
    <path d="M400 0 C406.6 0 413.2 0 420 0 C429.05613136 21.7805691 438.07196767 43.57651861 446.98849487 65.41464233 C452.93578341 79.97878605 458.92501947 94.52515486 464.9375 109.0625 C470.20620598 121.80485541 475.47370005 134.54755892 480.6875 147.3125 C481.13923584 148.41537354 481.59097168 149.51824707 482.05639648 150.65454102 C482.45415283 151.63092529 482.85190918 152.60730957 483.26171875 153.61328125 C483.60162842 154.44641846 483.94153809 155.27955566 484.29174805 156.13793945 C485 158 485 158 485 159 C478.07 159 471.14 159 464 159 C458.32353788 147.64707576 453.71404521 135.78511302 449 124 C423.26 124 397.52 124 371 124 C366.38 135.55 361.76 147.1 357 159 C350.07 159 343.14 159 336 159 C336.86966911 154.65165443 338.11012678 150.91866645 339.78125 146.859375 C340.06615799 146.15761642 340.35106598 145.45585785 340.64460754 144.73283386 C341.5919281 142.40337033 342.54583999 140.07666957 343.5 137.75 C344.17627282 136.09197915 344.85229308 134.43385528 345.52807617 132.77563477 C351.10939149 119.09978599 356.77121383 105.4572134 362.44042969 91.81762695 C375.12900003 61.28126468 387.57535535 30.64452992 400 0 Z M402 0 C402.66 0 403.32 0 404 0 C411.55333875 18.0227682 419.06918318 36.06073602 426.43453979 54.1612854 C427.10321155 55.80383947 427.77307285 57.44590978 428.44412231 59.0874939 C429.38167974 61.38241884 430.31459595 63.67917251 431.24609375 65.9765625 C431.52661591 66.66137192 431.80713806 67.34618134 432.09616089 68.05174255 C434 72.77077979 434 72.77077979 434 75 C413.54 75 393.08 75 372 75 C375.51338763 65.63096633 379.01776378 56.31573841 382.8203125 47.0703125 C383.24625702 46.02906219 383.67220154 44.98781189 384.11105347 43.91500854 C385.44684569 40.65077029 386.78579018 37.38783741 388.125 34.125 C389.47065568 30.8404582 390.81564829 27.55564576 392.16036987 24.27072144 C392.99002149 22.24466116 393.82031776 20.21886469 394.65139771 18.19338989 C397.13277646 12.14145629 399.58119469 6.07721608 402 0 Z" />
  </g>
</svg>
