<svg width="24" height="24" viewBox="0 0 24 24" fill="none" xmlns="http://www.w3.org/2000/svg">
  <path d="M17 8H19C20.1046 8 21 8.89543 21 10V16C21 17.1046 20.1046 18 19 18H17V21L13 18H9C8.44772 18 7.94772 17.7761 7.58579 17.4142" stroke="currentColor" stroke-width="2" stroke-linecap="round" stroke-linejoin="round"/>
  <path d="M9 8H3C1.89543 8 1 8.89543 1 10V16C1 17.1046 1.89543 18 3 18H5V21L9 18H13C14.1046 18 15 17.1046 15 16V10C15 8.89543 14.1046 8 13 8H9Z" fill="currentColor" fill-opacity="0.2" stroke="currentColor" stroke-width="2" stroke-linecap="round" stroke-linejoin="round"/>
  <circle cx="5" cy="13" r="1" fill="currentColor"/>
  <circle cx="9" cy="13" r="1" fill="currentColor"/>
  <circle cx="13" cy="13" r="1" fill="currentColor"/>
</svg> 