<svg width="24" height="24" viewBox="0 0 24 24" fill="none" xmlns="http://www.w3.org/2000/svg">
  <path d="M8 9.5L6.5 11L8 12.5L6.5 14L8 15.5L9.5 14L11 15.5L12.5 14L14 15.5L15.5 14L17 15.5L15.5 14L17 12.5L15.5 11L17 9.5L15.5 8L14 9.5L12.5 8L11 9.5L9.5 8L8 9.5Z" fill="currentColor" fill-opacity="0.2" stroke="currentColor" stroke-width="1.5" stroke-linecap="round" stroke-linejoin="round"/>
  <path d="M21 16.0002V8.00024C21 6.89567 20.1046 6.00024 19 6.00024H16.5C15.3954 6.00024 14.5 6.89567 14.5 8.00024V8.50024" stroke="currentColor" stroke-width="1.5" stroke-linecap="round" stroke-linejoin="round"/>
  <path d="M3 8.00024V16.0002C3 17.1048 3.89543 18.0002 5 18.0002H7.5C8.60457 18.0002 9.5 17.1048 9.5 16.0002V15.5002" stroke="currentColor" stroke-width="1.5" stroke-linecap="round" stroke-linejoin="round"/>
  <path d="M16 15.5002V16.0002C16 17.1048 16.8954 18.0002 18 18.0002H19C20.1046 18.0002 21 17.1048 21 16.0002" stroke="currentColor" stroke-width="1.5" stroke-linecap="round" stroke-linejoin="round"/>
  <path d="M8 8.50024V8.00024C8 6.89567 7.10457 6.00024 6 6.00024H5C3.89543 6.00024 3 6.89567 3 8.00024" stroke="currentColor" stroke-width="1.5" stroke-linecap="round" stroke-linejoin="round"/>
</svg> 