<svg width="800" height="600" viewBox="0 0 800 600" fill="none" xmlns="http://www.w3.org/2000/svg">
  <!-- Background -->
  <rect width="800" height="600" rx="12" fill="#F8FAFC"/>
  
  <!-- Header -->
  <rect width="800" height="60" rx="8" fill="#F1F5F9"/>
  <rect x="20" y="20" width="120" height="20" rx="4" fill="#94A3B8"/>
  <rect x="680" y="20" width="40" height="20" rx="10" fill="#64748B"/>
  <rect x="740" y="20" width="40" height="20" rx="10" fill="#64748B"/>
  
  <!-- Sidebar -->
  <rect width="200" height="540" y="60" fill="#F1F5F9"/>
  <rect x="20" y="80" width="160" height="12" rx="2" fill="#94A3B8"/>
  <rect x="20" y="110" width="140" height="10" rx="2" fill="#CBD5E1"/>
  <rect x="20" y="140" width="140" height="10" rx="2" fill="#CBD5E1"/>
  <rect x="20" y="170" width="140" height="10" rx="2" fill="#CBD5E1"/>
  <rect x="20" y="200" width="140" height="10" rx="2" fill="#CBD5E1"/>
  <rect x="20" y="230" width="140" height="10" rx="2" fill="#CBD5E1"/>
  
  <!-- Main Content -->
  <rect x="220" y="80" width="560" height="40" rx="4" fill="#E2E8F0"/>
  <rect x="240" y="90" width="200" height="20" rx="4" fill="#94A3B8"/>
  <rect x="660" y="90" width="100" height="20" rx="4" fill="#0EA5E9"/>
  
  <!-- Stats Cards -->
  <rect x="220" y="140" width="170" height="100" rx="8" fill="#FFFFFF" stroke="#E2E8F0" stroke-width="2"/>
  <rect x="240" y="160" width="80" height="12" rx="2" fill="#94A3B8"/>
  <rect x="240" y="190" width="40" height="30" rx="2" fill="#0EA5E9"/>
  
  <rect x="410" y="140" width="170" height="100" rx="8" fill="#FFFFFF" stroke="#E2E8F0" stroke-width="2"/>
  <rect x="430" y="160" width="80" height="12" rx="2" fill="#94A3B8"/>
  <rect x="430" y="190" width="60" height="30" rx="2" fill="#10B981"/>
  
  <rect x="600" y="140" width="170" height="100" rx="8" fill="#FFFFFF" stroke="#E2E8F0" stroke-width="2"/>
  <rect x="620" y="160" width="80" height="12" rx="2" fill="#94A3B8"/>
  <rect x="620" y="190" width="50" height="30" rx="2" fill="#F59E0B"/>
  
  <!-- Chart -->
  <rect x="220" y="260" width="360" height="220" rx="8" fill="#FFFFFF" stroke="#E2E8F0" stroke-width="2"/>
  <rect x="240" y="280" width="100" height="12" rx="2" fill="#94A3B8"/>
  <rect x="240" y="310" width="320" height="150" rx="4" fill="#F8FAFC"/>
  
  <!-- Line Chart Placeholder -->
  <path d="M240 410 L280 380 L320 400 L360 350 L400 370 L440 330 L480 360 L520 320 L560 340" stroke="#0EA5E9" stroke-width="2" stroke-linecap="round" stroke-linejoin="round"/>
  
  <!-- Task List -->
  <rect x="600" y="260" width="170" height="220" rx="8" fill="#FFFFFF" stroke="#E2E8F0" stroke-width="2"/>
  <rect x="620" y="280" width="80" height="12" rx="2" fill="#94A3B8"/>
  
  <!-- Task Items -->
  <rect x="620" y="310" width="130" height="30" rx="4" fill="#F8FAFC"/>
  <rect x="630" y="320" width="80" height="10" rx="2" fill="#94A3B8"/>
  
  <rect x="620" y="350" width="130" height="30" rx="4" fill="#F8FAFC"/>
  <rect x="630" y="360" width="70" height="10" rx="2" fill="#94A3B8"/>
  
  <rect x="620" y="390" width="130" height="30" rx="4" fill="#F8FAFC"/>
  <rect x="630" y="400" width="90" height="10" rx="2" fill="#94A3B8"/>
  
  <rect x="620" y="430" width="130" height="30" rx="4" fill="#F8FAFC"/>
  <rect x="630" y="440" width="60" height="10" rx="2" fill="#94A3B8"/>
  
  <!-- Calendar -->
  <rect x="220" y="500" width="550" height="80" rx="8" fill="#FFFFFF" stroke="#E2E8F0" stroke-width="2"/>
  <rect x="240" y="520" width="80" height="12" rx="2" fill="#94A3B8"/>
  <rect x="240" y="550" width="60" height="10" rx="2" fill="#0EA5E9"/>
  <rect x="320" y="550" width="60" height="10" rx="2" fill="#F59E0B"/>
  <rect x="400" y="550" width="60" height="10" rx="2" fill="#10B981"/>
</svg> 