<svg xmlns="http://www.w3.org/2000/svg" width="1920" height="300"><path fill="#FEFEFE" d="M0 0h1920v300H0z"/><path fill="#FDFDFD" d="M344.813 93.875A239 239 0 0 1 350 98l1.96 1.578c10.212 9.148 16.164 23.684 17.259 37.103.647 11.978.353 23.098-4.219 34.319l-1.215 3.09c-6.293 14.172-17.643 24.037-31.723 30.222-17.054 6.219-36.482 5.46-53.085-1.597C266.357 196.37 255.224 185.25 250 172l-1.129-2.84c-5.69-16.675-4.948-37.43 2.691-53.285 7.81-15.25 20.193-25.57 36.43-30.848 19.152-5.134 40.495-2.66 56.82 8.848"/><path fill="#1C1C1C" d="M601 66h20c9.056 21.78 18.072 43.577 26.988 65.415 5.948 14.564 11.937 29.11 17.95 43.648 5.268 12.742 10.536 25.485 15.75 38.25l1.368 3.342 1.206 2.958 1.03 2.525C686 224 686 224 686 225h-21c-5.676-11.353-10.286-23.215-15-35h-78l-14 35h-21c.87-4.348 2.11-8.081 3.781-12.14l.864-2.127q1.422-3.494 2.855-6.983l2.028-4.974c5.581-13.676 11.243-27.319 16.912-40.958C576.13 127.28 588.575 96.645 601 66m-293.062-3.187 2.841-.038c5.299-.01 10.107.414 15.244 1.733 2.007.5 3.994.819 6.04 1.117 17.805 3.991 34.817 17.136 44.625 32.125 12.356 19.653 16.82 43.376 12.125 66.238C383.214 184.74 373.278 202.704 355 215c-21.73 12.487-45.65 16.489-70.2 11.098-21.27-6.143-38.735-18.864-49.79-38.229-10.961-20.298-13.471-44.906-7.197-67.08C234.568 99.233 246.887 82.794 267 72c13.227-6.865 26.167-9.177 40.938-9.187M259.03 104.12c-12.995 15.534-14.5 34.441-13.03 53.88 2.21 15.853 11.269 28.785 23.375 38.813 15.324 11.286 33.653 13.004 52 10.5C336.77 204.233 349.66 195.55 359 183c2.406-3.866 4.286-7.784 6-12l1.254-3.066c5.732-16.597 4.302-35.948-2.54-51.938-7.985-15.993-21.74-25.783-38.316-31.418-24.995-6.025-48.917.743-66.367 19.543"/><path fill="#1B1B1B" d="M404 66h127v19h-53v140h-20V85h-54zm-289 0h20v140h77v19h-97z"/><path fill="#FCFCFC" d="M610 95h2c7.553 18.023 15.07 36.06 22.435 54.161l2.01 4.926q1.405 3.443 2.801 6.89l.85 2.075C642 167.77 642 167.77 642 170h-62c3.513-9.369 7.018-18.684 10.82-27.93l1.291-3.155q2.005-4.896 4.014-9.79l4.035-9.854 2.491-6.078A1902 1902 0 0 0 610 95"/><path fill="#FAFAFA" d="M1772.25 130.625c4.758 2.669 8 6.126 9.75 11.375.742 6.846.06 12.328-4 18-5.544 5.274-10.447 5.347-17.828 5.281-5.48-.486-7.978-2.925-11.485-6.906-3.798-5.347-3.24-10.992-2.687-17.375 2.286-4.923 5.717-7.81 10-11 5.525-1.842 10.91-1.817 16.25.625m-498 0c4.758 2.669 8 6.126 9.75 11.375.742 6.846.06 12.328-4 18-5.544 5.274-10.447 5.347-17.828 5.281-5.48-.486-7.978-2.925-11.485-6.906-3.798-5.347-3.24-10.992-2.687-17.375 2.286-4.923 5.717-7.81 10-11 5.525-1.842 10.91-1.817 16.25.625m-88 0c4.758 2.669 8 6.126 9.75 11.375.742 6.846.06 12.328-4 18-5.544 5.274-10.447 5.347-17.828 5.281-5.48-.486-7.978-2.925-11.485-6.906-3.798-5.347-3.24-10.992-2.687-17.375 2.286-4.923 5.717-7.81 10-11 5.525-1.842 10.91-1.817 16.25.625M1590 129c5.816 2.402 10.17 6.339 13 12 .574 6.66.473 12.21-3 18-3.51 3.683-6.763 5.818-11.926 6.238-9.114.2-9.114.2-13.637-1.863-4.883-4.758-7.548-9.298-7.75-16.125.062-5.29 1.172-8.006 4.313-12.25 5.886-5.445 11.055-7.17 19-6"/><path fill="#FCFCFC" d="M1385.25 130.563c5.045 2.819 7.946 7.025 9.75 12.437.775 6.44-.02 11.768-4 17-4.412 4.567-8.9 5.359-15.125 5.563-5.393-.225-9.01-.495-12.875-4.563-4.23-5.449-4.684-11.184-4.441-17.937.645-4.478 2-7.14 5.441-10.063 6.577-4.776 13.764-5.688 21.25-2.437"/><path fill="#FBFBFB" d="M1072.813 131c4.525 2.833 6.872 5.812 8.187 11 .906 7.414.201 12.6-4.23 18.691-2.866 3.175-5.056 4.198-9.317 4.86-12.393.428-12.393.428-17.156-3.942-4.059-5.036-6.01-9.845-5.684-16.37.892-5.161 3.101-8.986 6.824-12.614 6.998-4.437 13.798-5.333 21.376-1.625"/><path fill="#F8F8F8" d="M900 130c19.476-.716 19.476-.716 24.586 3.46 3.894 4.24 5.627 7.64 5.914 13.477-.23 5.03-1.458 9.023-4.5 13.063-8.37 6.8-14.361 5-26 5z"/><path fill="#1C1C1C" d="M744 14h3v272h-3z"/><path fill="#2C2C2C" d="m1326 130 9.125-.312 2.84-.138c4.3-.071 7.176.066 10.59 2.845 2.883 3.071 3.38 3.742 3.695 7.917-.403 5.94-3.15 8.664-7.25 12.688l1.531 2.371 1.969 3.066 1.969 3.06C1352 164 1352 164 1352 165c-2.262.34-2.262.34-5 0-1.957-2.371-1.957-2.371-3.812-5.437-2.574-4.043-2.574-4.043-6.481-6.516-2.419-.316-2.419-.316-5.707-.047v12h-5zm-358 0 9.125-.312 2.84-.138c4.3-.071 7.176.066 10.59 2.845 2.883 3.071 3.38 3.742 3.695 7.917-.403 5.94-3.15 8.664-7.25 12.688l1.531 2.371 1.969 3.066 1.969 3.06C994 164 994 164 994 165c-2.262.34-2.262.34-5 0-1.957-2.371-1.957-2.371-3.812-5.437-2.574-4.043-2.574-4.043-6.481-6.516-2.419-.316-2.419-.316-5.707-.047v12h-5z"/><path fill="#292929" d="M1292 130c17 0 17 0 23 3 2.827 4.24 2.658 8.02 2 13-1.812 3.125-1.812 3.125-4 5h-3c2.596 4.71 5.189 9.413 8 14-2.266.273-2.266.273-5 0-1.984-1.898-1.984-1.898-3.75-4.375l-1.797-2.46C1306 156 1306 156 1305 154c-1.895-.465-1.895-.465-4.062-.625L1297 153v12h-5z"/><path fill="#272727" d="m1399 130 5 1a2312 2312 0 0 1 3.5 10.25l1.012 2.934.957 2.832.888 2.602C1411 152 1411 152 1411 156h2l.445-1.625c2.377-8.303 5.466-16.317 8.555-24.375h5a3548 3548 0 0 1 4.5 11.313c.43 1.071.859 2.143 1.3 3.248l1.231 3.115 1.143 2.872C1436 153 1436 153 1436 156h2l.688-3.5c1.605-7.302 4.026-14.388 6.312-21.5l5-1c-1.427 6.926-3.331 13.585-5.5 20.313l-.934 2.955c-1.302 4.07-2.563 7.945-4.566 11.732h-4l-10-26c-1.78 2.669-2.799 4.843-3.91 7.816l-1.06 2.815-1.092 2.932-2.16 5.753-.962 2.577C1415 163 1415 163 1414 165h-4q-2.362-6.508-4.7-13.025-.796-2.215-1.6-4.429-1.154-3.184-2.294-6.374l-.729-1.992c-1.175-3.31-1.677-5.608-1.677-9.18"/><path fill="#262626" d="M1204 130c5 1 5 1 6.637 2.75l1.406 2.25 1.564 2.438 1.58 2.562q1.579 2.505 3.168 5l1.396 2.25c1.145 1.893 1.145 1.893 3.249 2.75l.7-2.012c1.68-3.862 3.822-7.275 6.112-10.8l1.292-2.1 1.29-1.983 1.152-1.807C1235 130 1235 130 1240 130v35h-5l-1-24-10 15c-5-1-5-1-6.486-2.49l-1.19-1.889-1.192-1.838-1.445-2.345L1209 140l-1 25h-4z"/><path fill="#242424" d="M1479 130h5q2.378 5.437 4.75 10.875l1.344 3.07C1498 162.083 1498 162.083 1498 165h-5l-3-7h-17l-3 7h-5c4.306-11.826 9.045-23.43 14-35m200.563-.062L1682 130q2.787 6.75 5.554 13.507.944 2.298 1.892 4.595 1.361 3.3 2.71 6.605l.862 2.074c1.18 2.905 1.982 5.051 1.982 8.219l-5-1-2-7h-18l-2 8h-5c2.123-7.786 4.981-15.137 8.125-22.562l1.379-3.307c3.827-9.115 3.827-9.115 7.059-9.193"/><path fill="#232323" d="M875 130h5q2.994 7.235 5.981 14.471l2.038 4.927q1.461 3.532 2.918 7.067l.928 2.238C894 163.886 894 163.886 894 165h-5l-3-7-18-1-1 5-1 3h-5c2.321-7.324 5.14-14.36 8.125-21.437l1.379-3.295c3.319-7.914 3.319-7.914 4.496-10.268"/><path fill="#282828" d="M1385.25 130.563c5.045 2.819 7.946 7.025 9.75 12.437.775 6.44-.02 11.768-4 17-4.412 4.567-8.9 5.359-15.125 5.563-5.393-.225-9.01-.495-12.875-4.563-4.23-5.449-4.684-11.184-4.441-17.937.645-4.478 2-7.14 5.441-10.063 6.577-4.776 13.764-5.688 21.25-2.437m-21.625 10.25c-1.388 4.858-1.124 8.865.625 13.5 2.451 3.764 4.517 5.276 8.75 6.687 3.776.503 7.428.859 10.852-1.012 3.208-2.631 5.861-5.256 6.554-9.441.172-5.121.163-8.628-3.218-12.672-3.286-3.39-6.366-4.065-11-4.25-6.241.055-8.814 2.246-12.563 7.188"/><path fill="#272727" d="M1590 129c5.816 2.402 10.17 6.339 13 12 .574 6.66.473 12.21-3 18-3.51 3.683-6.763 5.818-11.926 6.238-9.114.2-9.114.2-13.637-1.863-4.883-4.758-7.548-9.298-7.75-16.125.062-5.29 1.172-8.006 4.313-12.25 5.886-5.445 11.055-7.17 19-6m-16.64 9.738c-1.737 2.89-1.76 4.846-1.735 8.2l-.023 3.09c.579 4.322 2.228 6.974 5.523 9.785 5.174 2.137 9.91 1.817 15.188.125 4.004-2.887 6.162-6.163 7.07-10.961.295-5.137-1.088-8.148-4.383-11.977-3.716-3.185-7.059-3.462-11.785-3.29-4.093.535-7.037 2.042-9.856 5.028M1072.813 131c4.525 2.833 6.872 5.812 8.187 11 .906 7.414.201 12.6-4.23 18.691-2.866 3.175-5.056 4.198-9.317 4.86-12.393.428-12.393.428-17.156-3.942-4.059-5.036-6.01-9.845-5.684-16.37.892-5.161 3.101-8.986 6.824-12.614 6.998-4.437 13.798-5.333 21.376-1.625m-21.626 8.063c-2.1 5.196-2.143 10.624 0 15.812 3.671 4.449 3.671 4.449 8.926 6.477 5.001.184 8.639-.52 12.887-3.352 3.564-3.933 4.36-7.641 4.281-12.937-.598-4.388-3.2-7.11-6.406-9.938-7.306-2.859-14.433-2.042-19.687 3.938"/><path fill="#262626" d="M1790 130c5 0 5 0 6.79 1.74l1.62 2.424 1.81 2.652 1.842 2.809 1.854 2.738A843 843 0 0 1 1809 150l4 6 1-26h4v35c-5.626-1.125-5.626-1.125-7.684-4.062l-1.373-1.918-1.38-2.02-1.37-1.926c-3.5-4.956-6.827-10.025-10.193-15.074l-1 25h-5z"/><path fill="#272727" d="M1772.25 130.625c4.758 2.669 8 6.126 9.75 11.375.742 6.846.06 12.328-4 18-5.544 5.274-10.447 5.347-17.828 5.281-5.48-.486-7.978-2.925-11.485-6.906-3.798-5.347-3.24-10.992-2.687-17.375 2.286-4.923 5.717-7.81 10-11 5.525-1.842 10.91-1.817 16.25.625m-21.625 10.188c-1.367 4.783-1.096 8.825.5 13.437 2.334 3.423 4.13 4.947 7.875 6.75 5.615.896 10.244.284 15-3 3.927-5.371 3.801-10.572 3-17-1.747-3.234-3.056-4.417-6.125-6.312-8.94-2.138-14.553-1.385-20.25 6.125m-476.375-10.188c4.758 2.669 8 6.126 9.75 11.375.742 6.846.06 12.328-4 18-5.544 5.274-10.447 5.347-17.828 5.281-5.48-.486-7.978-2.925-11.485-6.906-3.798-5.347-3.24-10.992-2.687-17.375 2.286-4.923 5.717-7.81 10-11 5.525-1.842 10.91-1.817 16.25.625m-21.625 10.188c-1.367 4.783-1.096 8.825.5 13.437 2.334 3.423 4.13 4.947 7.875 6.75 5.615.896 10.244.284 15-3 3.927-5.371 3.801-10.572 3-17-1.747-3.234-3.056-4.417-6.125-6.312-8.94-2.138-14.553-1.385-20.25 6.125m-66.375-10.188c4.758 2.669 8 6.126 9.75 11.375.742 6.846.06 12.328-4 18-5.544 5.274-10.447 5.347-17.828 5.281-5.48-.486-7.978-2.925-11.485-6.906-3.798-5.347-3.24-10.992-2.687-17.375 2.286-4.923 5.717-7.81 10-11 5.525-1.842 10.91-1.817 16.25.625m-21.625 10.188c-1.367 4.783-1.096 8.825.5 13.437 2.334 3.423 4.13 4.947 7.875 6.75 5.615.896 10.244.284 15-3 3.927-5.371 3.801-10.572 3-17-1.747-3.234-3.056-4.417-6.125-6.312-8.94-2.138-14.553-1.385-20.25 6.125"/><path fill="#212121" d="M900 130c19.476-.716 19.476-.716 24.586 3.46 3.894 4.24 5.627 7.64 5.914 13.477-.23 5.03-1.458 9.023-4.5 13.063-8.37 6.8-14.361 5-26 5zm4 4v27c10.732.79 10.732.79 18-4 3.562-3.966 3.56-7.13 3.422-12.3-.668-4.27-2.21-5.852-5.422-8.7-5.043-2.894-5.043-2.894-16-2"/><path fill="#2B2B2B" d="M1635.25 130.563c4.216 2.352 6.31 5.318 8.75 9.437v2c-2.187.375-2.187.375-5 0-2.687-2.937-2.687-2.937-5-6-3.951-1.976-8.704-1.576-13-1-3.152 2.23-3.152 2.23-5 5l-1 1a99 99 0 0 0-.187 5.813l-.043 3.207c.227 2.941.642 4.53 2.23 6.98 3.744 3.177 7.12 3.462 11.852 3.29 3.002-.405 4.82-1.372 7.148-3.29l1.5-2.187L1639 153c2.688-.25 2.688-.25 5 0-1.859 5.087-3.26 8.024-8 11-4.995 2.172-9.81 3.107-15.082 1.277-5.327-2.44-8.248-5.354-11.168-10.464-1.483-5.564-1.864-11.41.875-16.625 6.242-8.378 14.609-12.073 24.625-7.625m-80.937-.313c2.676 1.743 4.164 2.958 5.687 5.75v4h-4l-.875-1.937c-.953-2.215-.953-2.215-3.125-3.063a85 85 0 0 0-5.062-.125l-2.723-.008c-2.189-.114-2.189-.114-3.215 1.133-.04 2-.043 4 0 6l2.195.77c15.394 5.48 15.394 5.48 17.805 9.23.53 4.09.45 6.25-1.687 9.813-3.621 3.425-6.195 4.059-11.126 4.625-4.858-.148-8.765-1.99-12.187-5.438-1-3.812-1-3.812-1-7h4c1.625 2.438 1.625 2.438 3 5 2.366 1.183 3.868 1.134 6.5 1.125l2.406.008c2.153 0 2.153 0 4.094-1.133v-6l-2.16-.734c-14.342-5.02-14.342-5.02-17.84-10.266-.437-3.375-.437-3.375 0-7 5.22-6.489 11.68-7.63 19.313-4.75m-534 0c2.676 1.743 4.164 2.958 5.687 5.75v4h-4l-.875-1.937c-.953-2.215-.953-2.215-3.125-3.063a85 85 0 0 0-5.062-.125l-2.723-.008c-2.189-.114-2.189-.114-3.215 1.133-.04 2-.043 4 0 6l2.195.77c15.394 5.48 15.394 5.48 17.805 9.23.53 4.09.45 6.25-1.687 9.813-3.621 3.425-6.195 4.059-11.126 4.625-4.858-.148-8.765-1.99-12.187-5.438-1-3.812-1-3.812-1-7h4c1.625 2.438 1.625 2.438 3 5 2.366 1.183 3.868 1.134 6.5 1.125l2.406.008c2.153 0 2.153 0 4.094-1.133v-6l-2.16-.734c-14.342-5.02-14.342-5.02-17.84-10.266-.437-3.375-.437-3.375 0-7 5.22-6.489 11.68-7.63 19.313-4.75M1519 129c3.518 1.276 6.259 2.936 8.438 6.063C1528 137 1528 137 1528 140c-2.312.313-2.312.313-5 0l-1.281-2.5L1520 135c-2.964-.605-2.964-.605-6.187-.312l-3.293.136-2.52.176c-.417 2.874-.417 2.874 0 6 3.88 3.162 8.67 4.331 13.379 5.84 2.974 1.316 4.597 2.622 6.621 5.16.729 2.743.565 5.227 0 8-2.404 3.384-5.033 4.893-9 6-5.247.477-8.558-.138-13-3-3.255-3.34-4-4.228-4-9h5l.875 2.438c.858 2.695.858 2.695 3.125 3.562 2.11.197 2.11.197 4.438.188l2.37.042c2.484-.09 2.484-.09 5.192-2.23.052-2.423.052-2.423-1-5-2.396-1.271-4.457-2.157-7-3-9.624-3.238-9.624-3.238-12-7-.605-3.125-.682-5.884 0-9 4.786-5.038 9.313-5.798 16-5"/><path fill="#212121" d="M938 130h21v4h-16v11h15v4h-16v12h18v4h-22z"/><path fill="#1B1B1B" d="M835 130h21v4h-17v11h16v4h-16v12h18v4h-22z"/><path fill="#2A2A2A" d="M1698 130h28v4h-11v31h-5v-31h-12z"/><path fill="#1E1E1E" d="M1090 130h20v4h-16v12h15v4h-15v15h-4z"/><path fill="#191919" d="M1127 130h28v4h-12v31h-4v-31h-12z"/><path fill="#FAFAFA" d="m1331 134 5.75-.187 3.234-.106c3.371.328 4.704.843 7.016 3.293.531 1.938.531 1.938.5 4l.031 2.063C1347 145 1347 145 1345.36 146.738c-3.039 1.625-5.183 1.561-8.609 1.45L1331 148zm-358 0 5.75-.187 3.234-.106c3.371.328 4.704.843 7.016 3.293.531 1.938.531 1.938.5 4l.031 2.063C989 145 989 145 987.36 146.738c-3.039 1.625-5.183 1.561-8.609 1.45L973 148z"/><path fill="#191919" d="M807 130h4v31h17v4h-21z"/><path fill="#FAFAFA" d="M1297 134c11.362-.494 11.362-.494 14.36 1.828C1313 138 1313 138 1313.5 141c-.622 3.732-1.536 4.703-4.5 7-4.066.527-7.881.18-12 0z"/><path fill="#353535" d="M1733 130h5v35h-5zm-81 0h5v35h-5z"/><path fill="#F0F0F0" d="M1678 137h2q1.506 3.435 3 6.875l.867 1.973C1686 150.773 1686 150.773 1686 153h-14zm-197 0c2.722 2.37 3.888 4.653 5.188 8l1.042 2.625C1488 150 1488 150 1488 153h-13c1.603-5.65 3.146-10.836 6-16m-604 0c3.14 1.57 3.421 4.224 4.625 7.438l1.352 3.558C884 151 884 151 884 153h-13c.76-3.797 1.566-6.73 3-10.25l1.063-2.64C876 138 876 138 877 137"/></svg>